# 3ds Max Wavefront OBJ Exporter v0.99 - (c)2007 guruware
# File Created: 19.10.2024 01:52:14

mtllib dadobest.mtl

#
# object pira010
#

v  2.3590 0.7522 8.1002
v  2.3531 0.7453 8.0960
v  6.6315 -0.9921 5.0240
v  8.2369 0.7522 0.0100
v  8.2310 0.7453 0.0058
v  5.2950 0.7488 4.0530
# 6 vertices

vn -0.2421 0.4595 0.8545
vn -0.8742 -0.2820 0.3952
vn 0.5569 -0.7254 0.4046
vn 0.7379 0.4595 -0.4943
vn 0.1057 -0.2820 -0.9536
vn -0.5569 0.7254 -0.4046
# 6 vertex normals

vt 0.5838 0.5671 0.0000
vt 0.4872 0.4937 0.0000
vt 0.4583 0.4937 0.0000
vt 0.4727 0.5015 0.0000
# 4 texture coords

o pira010
g pira010
usemtl Material__131
s 4
f 1/1/1 2/1/2 3/1/3 
s 2
f 4/2/4 1/3/1 3/4/3 
s 16
f 5/1/5 4/1/4 3/1/3 
s 32
f 2/1/2 5/1/5 3/1/3 
s 8
f 1/1/1 6/1/6 2/1/2 
f 4/1/4 6/1/6 1/1/1 
f 5/1/5 6/1/6 4/1/4 
f 2/1/2 6/1/6 5/1/5 
# 0 polygons - 8 triangles

#
# object pira009
#

v  8.2369 0.7522 0.0059
v  8.2310 0.7453 0.0102
v  6.6315 -0.9921 -5.0081
v  2.3590 0.7522 -8.0842
v  2.3531 0.7453 -8.0800
v  5.2950 0.7488 -4.0370
# 6 vertices

vn 0.7379 0.4595 0.4943
vn 0.1057 -0.2820 0.9536
vn 0.5569 -0.7254 -0.4046
vn -0.2421 0.4595 -0.8545
vn -0.8742 -0.2820 -0.3952
vn -0.5569 0.7254 0.4046
# 6 vertex normals

vt 0.5838 0.5671 0.0000
vt 0.1389 0.3956 0.0000
vt 0.1100 0.3956 0.0000
vt 0.1244 0.4034 0.0000
# 4 texture coords

o pira009
g pira009
usemtl Material__144
s 4
f 7/5/7 8/5/8 9/5/9 
s 2
f 10/6/10 7/7/7 9/8/9 
s 16
f 11/5/11 10/5/10 9/5/9 
s 32
f 8/5/8 11/5/11 9/5/9 
s 8
f 7/5/7 12/5/12 8/5/8 
f 10/5/10 12/5/12 7/5/7 
f 11/5/11 12/5/12 10/5/10 
f 8/5/8 12/5/12 11/5/11 
# 0 polygons - 8 triangles

#
# object pira008
#

v  2.3512 0.7522 -8.0845
v  2.3534 0.7453 -8.0776
v  -2.9135 -0.9921 -8.1072
v  -7.1594 0.7522 -4.9944
v  -7.1572 0.7453 -4.9875
v  -2.4030 0.7488 -6.5360
# 6 vertices

vn 0.6981 0.4595 -0.5490
vn 0.9396 -0.2820 0.1941
vn -0.2127 -0.7254 -0.6547
vn -0.8875 0.4595 -0.0338
vn -0.6460 -0.2820 0.7093
vn 0.2127 0.7254 0.6547
# 6 vertex normals

vt 0.5838 0.5671 0.0000
vt 0.0354 0.1779 0.0000
vt 0.0732 0.1779 0.0000
vt 0.0543 0.2010 0.0000
# 4 texture coords

o pira008
g pira008
usemtl Material__128
s 4
f 13/9/13 14/9/14 15/9/15 
s 2
f 16/10/16 13/11/13 15/12/15 
s 16
f 17/9/17 16/9/16 15/9/15 
s 32
f 14/9/14 17/9/17 15/9/15 
s 8
f 13/9/13 18/9/18 14/9/14 
f 16/9/16 18/9/18 13/9/13 
f 17/9/17 18/9/18 16/9/16 
f 14/9/14 18/9/18 17/9/17 
# 0 polygons - 8 triangles

#
# object pira007
#

v  -7.1636 0.7522 -4.9900
v  -7.1564 0.7453 -4.9900
v  -8.8121 -0.9921 0.0100
v  -7.1636 0.7522 5.0100
v  -7.1564 0.7453 5.0100
v  -7.1600 0.7488 0.0100
# 6 vertices

vn -0.3064 0.4595 -0.8336
vn 0.4750 -0.2820 -0.8336
vn -0.6884 -0.7254 -0.0000
vn -0.3064 0.4595 0.8336
vn 0.4750 -0.2820 0.8336
vn 0.6884 0.7254 0.0000
# 6 vertex normals

vt 0.5838 0.5671 0.0000
vt 0.3206 0.0229 0.0000
vt 0.2918 0.0229 0.0000
vt 0.3062 0.0307 0.0000
# 4 texture coords

o pira007
g pira007
usemtl Material__129
s 4
f 19/13/19 20/13/20 21/13/21 
s 2
f 22/14/22 19/15/19 21/16/21 
s 16
f 23/13/23 22/13/22 21/13/21 
s 32
f 20/13/20 23/13/23 21/13/21 
s 8
f 19/13/19 24/13/24 20/13/20 
f 22/13/22 24/13/24 19/13/19 
f 23/13/23 24/13/24 22/13/22 
f 20/13/20 24/13/24 23/13/23 
# 0 polygons - 8 triangles

#
# object pira006
#

v  -7.1550 0.7522 5.0107
v  -7.1528 0.7453 5.0039
v  -2.9092 -0.9921 8.1236
v  2.3555 0.7522 8.1009
v  2.3578 0.7453 8.0940
v  -2.3986 0.7488 6.5524
# 6 vertices

vn -0.8875 0.4595 0.0338
vn -0.6460 -0.2820 -0.7093
vn -0.2127 -0.7254 0.6547
vn 0.6981 0.4595 0.5490
vn 0.9396 -0.2820 -0.1941
vn 0.2127 0.7254 -0.6547
# 6 vertex normals

vt 0.5838 0.5671 0.0000
vt 0.6644 0.0476 0.0000
vt 0.6355 0.0476 0.0000
vt 0.6499 0.0554 0.0000
# 4 texture coords

o pira006
g pira006
usemtl Material__130
s 4
f 25/17/25 26/17/26 27/17/27 
s 2
f 28/18/28 25/19/25 27/20/27 
s 16
f 29/17/29 28/17/28 27/17/27 
s 32
f 26/17/26 29/17/29 27/17/27 
s 8
f 25/17/25 30/17/30 26/17/26 
f 28/17/28 30/17/30 25/17/25 
f 29/17/29 30/17/30 28/17/28 
f 26/17/26 30/17/30 29/17/29 
# 0 polygons - 8 triangles

#
# object pira005
#

v  -0.2754 8.0025 0.0101
v  2.3538 0.7453 -8.0781
v  2.3516 0.7522 -8.0850
v  -7.1590 0.7522 -4.9949
v  -7.1567 0.7453 -4.9880
v  -2.4026 0.7488 -6.5365
# 6 vertices

vn 0.2127 0.7254 0.6547
vn 0.7040 -0.7000 -0.1200
vn 0.4543 0.0667 -0.8884
vn -0.8897 0.0667 -0.4517
vn -0.6400 -0.7000 0.3167
vn -0.2127 -0.7254 -0.6547
# 6 vertex normals

vt 0.5848 0.5681 0.0000
vt 0.5832 0.5661 0.0000
vt 0.5864 0.5661 0.0000
vt 0.3914 0.2472 0.0000
vt 0.0588 0.2969 0.0000
vt 0.1415 0.1013 0.0000
vt 0.5839 0.5672 0.0000
vt 0.5840 0.5653 0.0000
vt 0.5837 0.5653 0.0000
vt 0.5842 0.5675 0.0000
vt 0.5847 0.5672 0.0000
vt 0.5852 0.5675 0.0000
vt 0.5852 0.5669 0.0000
vt 0.5842 0.5669 0.0000
# 14 texture coords

o pira005
g pira005
usemtl Material__123
s 4
f 31/21/31 32/22/32 33/23/33 
s 2
f 31/24/31 33/25/33 34/26/34 
s 16
f 31/27/31 34/28/34 35/29/35 
s 32
f 31/27/31 35/28/35 32/29/32 
s 8
f 32/30/32 36/31/36 33/32/33 
f 33/32/33 36/31/36 34/33/34 
f 34/33/34 36/31/36 35/34/35 
f 35/34/35 36/31/36 32/30/32 
# 0 polygons - 8 triangles

#
# object pira004
#

v  -0.2742 8.0025 0.0070
v  8.2365 0.7522 0.0100
v  8.2307 0.7453 0.0058
v  2.3528 0.7453 8.0960
v  2.3587 0.7522 8.1002
v  5.2947 0.7488 4.0530
# 6 vertices

vn -0.5569 0.7254 -0.4046
vn 0.9853 0.0667 -0.1575
vn 0.3316 -0.7000 -0.6324
vn -0.4990 -0.7000 0.5108
vn 0.1546 0.0667 0.9857
vn 0.5569 -0.7254 0.4046
# 6 vertex normals

vt 0.5839 0.5672 0.0000
vt 0.5840 0.5653 0.0000
vt 0.5837 0.5653 0.0000
vt 0.4311 0.3098 0.0000
vt 0.5504 0.4868 0.0000
vt 0.3197 0.4888 0.0000
vt 0.5840 0.5672 0.0000
vt 0.5839 0.5663 0.0000
vt 0.5837 0.5672 0.0000
# 9 texture coords

o pira004
g pira004
usemtl Material__125
s 4
f 37/35/37 38/36/38 39/37/39 
s 2
f 37/35/37 39/36/39 40/37/40 
s 16
f 37/35/37 40/36/40 41/37/41 
s 32
f 37/38/37 41/39/41 38/40/38 
s 8
f 38/41/38 42/42/42 39/43/39 
f 39/43/39 42/42/42 40/37/40 
f 40/37/40 42/42/42 41/36/41 
f 41/36/41 42/42/42 38/41/38 
# 0 polygons - 8 triangles

#
# object pira003
#

v  -0.2715 8.0025 0.0057
v  -7.1528 0.7453 5.0038
v  -7.1550 0.7522 5.0107
v  2.3555 0.7522 8.1009
v  2.3578 0.7453 8.0940
v  -2.3986 0.7488 6.5524
# 6 vertices

vn 0.2127 0.7254 -0.6547
vn -0.6400 -0.7000 -0.3167
vn -0.8897 0.0667 0.4517
vn 0.4543 0.0667 0.8884
vn 0.7039 -0.7000 0.1200
vn -0.2127 -0.7254 0.6547
# 6 vertex normals

vt 0.5839 0.5672 0.0000
vt 0.5840 0.5653 0.0000
vt 0.5837 0.5653 0.0000
vt 0.4509 0.2359 0.0000
vt 0.5279 0.0274 0.0000
vt 0.7285 0.1082 0.0000
vt 0.5840 0.5672 0.0000
vt 0.5839 0.5663 0.0000
vt 0.5837 0.5672 0.0000
# 9 texture coords

o pira003
g pira003
usemtl Material__126
s 4
f 43/44/43 44/45/44 45/46/45 
s 2
f 43/47/43 45/48/45 46/49/46 
s 16
f 43/44/43 46/45/46 47/46/47 
s 32
f 43/44/43 47/45/47 44/46/44 
s 8
f 44/50/44 48/51/48 45/52/45 
f 45/52/45 48/51/48 46/46/46 
f 46/46/46 48/51/48 47/45/47 
f 47/45/47 48/51/48 44/50/44 
# 0 polygons - 8 triangles

#
# object pira002
#

v  -0.2765 8.0025 0.0100
v  -7.1636 0.7522 5.0100
v  -7.1564 0.7453 5.0100
v  -7.1564 0.7453 -4.9900
v  -7.1636 0.7522 -4.9900
v  -7.1600 0.7488 0.0100
# 6 vertices

vn 0.6884 0.7254 0.0000
vn -0.7045 0.0667 0.7066
vn 0.1034 -0.7000 0.7066
vn 0.1034 -0.7000 -0.7066
vn -0.7045 0.0667 -0.7066
vn -0.6884 -0.7254 -0.0000
# 6 vertex normals

vt 0.5839 0.5672 0.0000
vt 0.5840 0.5653 0.0000
vt 0.5837 0.5653 0.0000
vt 0.4200 0.2321 0.0000
vt 0.1777 0.0803 0.0000
vt 0.4224 0.0187 0.0000
vt 0.5840 0.5672 0.0000
vt 0.5839 0.5663 0.0000
vt 0.5837 0.5672 0.0000
# 9 texture coords

o pira002
g pira002
usemtl Material__127
s 4
f 49/53/49 50/54/50 51/55/51 
s 2
f 49/53/49 51/54/51 52/55/52 
s 16
f 49/53/49 52/54/52 53/55/53 
s 32
f 49/56/49 53/57/53 50/58/50 
s 8
f 50/59/50 54/60/54 51/61/51 
f 51/61/51 54/60/54 52/55/52 
f 52/55/52 54/60/54 53/54/53 
f 53/54/53 54/60/54 50/59/50 
# 0 polygons - 8 triangles

#
# object pira001
#

v  -0.2739 8.0025 0.0090
v  8.2310 0.7453 0.0102
v  8.2369 0.7522 0.0060
v  2.3590 0.7522 -8.0842
v  2.3531 0.7453 -8.0800
v  5.2950 0.7488 -4.0370
# 6 vertices

vn -0.5569 0.7254 0.4046
vn 0.3316 -0.7000 0.6324
vn 0.9853 0.0667 0.1575
vn 0.1546 0.0667 -0.9857
vn -0.4990 -0.7000 -0.5108
vn 0.5569 -0.7254 -0.4046
# 6 vertex normals

vt 0.5839 0.5672 0.0000
vt 0.5840 0.5653 0.0000
vt 0.5837 0.5653 0.0000
vt 0.3747 0.2727 0.0000
vt 0.2458 0.4492 0.0000
vt 0.0763 0.3241 0.0000
vt 0.5840 0.5672 0.0000
vt 0.5839 0.5663 0.0000
vt 0.5837 0.5672 0.0000
# 9 texture coords

o pira001
g pira001
usemtl Material__124
s 4
f 55/62/55 56/63/56 57/64/57 
s 2
f 55/65/55 57/66/57 58/67/58 
s 16
f 55/62/55 58/63/58 59/64/59 
s 32
f 55/62/55 59/63/59 56/64/56 
s 8
f 56/68/56 60/69/60 57/70/57 
f 57/70/57 60/69/60 58/64/58 
f 58/64/58 60/69/60 59/63/59 
f 59/63/59 60/69/60 56/68/56 
# 0 polygons - 8 triangles

#
# object pira
#

v  -2.9001 -0.9913 -8.0858
v  -2.9024 -0.9845 -8.0789
v  2.3645 0.7530 -8.1085
v  6.6104 -0.9913 -4.9956
v  6.6082 -0.9845 -4.9887
v  1.8540 -0.9879 -6.5373
# 6 vertices

vn -0.6981 -0.4595 -0.5490
vn -0.9396 0.2820 0.1941
vn 0.2127 0.7254 -0.6547
vn 0.8875 -0.4595 -0.0338
vn 0.6460 0.2820 0.7093
vn -0.2127 -0.7254 0.6547
# 6 vertex normals

vt 0.5837 0.5653 0.0000
vt 0.5840 0.5653 0.0000
vt 0.5839 0.5672 0.0000
vt 0.2471 0.7784 0.0000
vt 0.2123 0.7784 0.0000
vt 0.2297 0.8169 0.0000
vt 0.5837 0.5672 0.0000
vt 0.5839 0.5663 0.0000
vt 0.5840 0.5672 0.0000
# 9 texture coords

o pira
g pira
usemtl Material__138
s 4
f 61/71/61 62/72/62 63/73/63 
s 2
f 64/74/64 61/75/61 63/76/63 
s 16
f 65/71/65 64/72/64 63/73/63 
s 32
f 62/71/62 65/72/65 63/73/63 
s 8
f 61/77/61 66/78/66 62/79/62 
f 64/71/64 66/78/66 61/77/61 
f 65/72/65 66/78/66 64/71/64 
f 62/79/62 66/78/66 65/72/65 
# 0 polygons - 8 triangles

#
# object pira
#

v  6.6128 -0.9913 -4.9923
v  6.6056 -0.9845 -4.9923
v  8.2612 0.7530 0.0077
v  6.6128 -0.9913 5.0077
v  6.6056 -0.9845 5.0077
v  6.6092 -0.9879 0.0077
# 6 vertices

vn 0.3064 -0.4595 -0.8336
vn -0.4750 0.2820 -0.8336
vn 0.6884 0.7254 0.0000
vn 0.3064 -0.4595 0.8336
vn -0.4750 0.2820 0.8336
vn -0.6884 -0.7254 -0.0000
# 6 vertex normals

vt 0.5866 0.5655 0.0000
vt 0.5818 0.5655 0.0000
vt 0.5842 0.5683 0.0000
vt 0.3240 0.5763 0.0000
vt 0.2595 0.5763 0.0000
vt 0.2917 0.6095 0.0000
vt 0.5891 0.5657 0.0000
vt 0.5820 0.5657 0.0000
vt 0.5855 0.5683 0.0000
vt 0.5871 0.5654 0.0000
vt 0.5808 0.5654 0.0000
vt 0.5840 0.5679 0.0000
vt 0.5838 0.5684 0.0000
vt 0.5827 0.5677 0.0000
vt 0.5816 0.5684 0.0000
vt 0.5838 0.5669 0.0000
vt 0.5816 0.5669 0.0000
# 17 texture coords

o pira
g pira
usemtl Material__142
s 4
f 67/80/67 68/81/68 69/82/69 
s 2
f 70/83/70 67/84/67 69/85/69 
s 16
f 71/86/71 70/87/70 69/88/69 
s 32
f 68/89/68 71/90/71 69/91/69 
s 8
f 67/92/67 72/93/72 68/94/68 
f 70/95/70 72/93/72 67/92/67 
f 71/96/71 72/93/72 70/95/70 
f 68/94/68 72/93/72 71/96/71 
# 0 polygons - 8 triangles

#
# object pira
#

v  6.6067 -0.9913 5.0125
v  6.6044 -0.9845 5.0057
v  2.3608 0.7530 8.1254
v  -2.9039 -0.9913 8.1027
v  -2.9061 -0.9845 8.0958
v  1.8503 -0.9879 6.5542
# 6 vertices

vn 0.8875 -0.4595 0.0338
vn 0.6460 0.2820 -0.7093
vn 0.2127 0.7254 0.6547
vn -0.6981 -0.4595 0.5490
vn -0.9396 0.2820 -0.1941
vn -0.2127 -0.7254 -0.6547
# 6 vertex normals

vt 0.5881 0.5656 0.0000
vt 0.5829 0.5656 0.0000
vt 0.5855 0.5689 0.0000
vt 0.6257 0.4831 0.0000
vt 0.5944 0.4831 0.0000
vt 0.6100 0.4963 0.0000
vt 0.5858 0.5668 0.0000
vt 0.5806 0.5668 0.0000
vt 0.5832 0.5694 0.0000
vt 0.5866 0.5671 0.0000
vt 0.5805 0.5671 0.0000
vt 0.5835 0.5690 0.0000
vt 0.5856 0.5695 0.0000
vt 0.5836 0.5680 0.0000
vt 0.5816 0.5695 0.0000
vt 0.5856 0.5666 0.0000
vt 0.5816 0.5666 0.0000
# 17 texture coords

o pira
g pira
usemtl Material__137
s 4
f 73/97/73 74/98/74 75/99/75 
s 2
f 76/100/76 73/101/73 75/102/75 
s 16
f 77/103/77 76/104/76 75/105/75 
s 32
f 74/106/74 77/107/77 75/108/75 
s 8
f 73/109/73 78/110/78 74/111/74 
f 76/112/76 78/110/78 73/109/73 
f 77/113/77 78/110/78 76/112/76 
f 74/111/74 78/110/78 77/113/77 
# 0 polygons - 8 triangles

#
# object pira
#

v  -2.9099 -0.9913 8.1017
v  -2.9040 -0.9845 8.0974
v  -7.1824 0.7530 5.0255
v  -8.7877 -0.9913 0.0115
v  -8.7819 -0.9845 0.0072
v  -5.8459 -0.9879 4.0545
# 6 vertices

vn 0.2421 -0.4595 0.8545
vn 0.8742 0.2820 0.3952
vn -0.5569 0.7254 0.4046
vn -0.7379 -0.4595 -0.4943
vn -0.1057 0.2820 -0.9536
vn 0.5569 -0.7254 -0.4046
# 6 vertex normals

vt 0.5888 0.5662 0.0000
vt 0.5812 0.5662 0.0000
vt 0.5850 0.5695 0.0000
vt 0.7996 0.9277 0.0000
vt 0.7790 0.9277 0.0000
vt 0.7893 0.9373 0.0000
vt 0.5862 0.5667 0.0000
vt 0.5850 0.5667 0.0000
vt 0.5856 0.5676 0.0000
vt 0.5889 0.5668 0.0000
vt 0.5803 0.5668 0.0000
vt 0.5846 0.5701 0.0000
vt 0.5869 0.5666 0.0000
vt 0.5850 0.5672 0.0000
vt 0.5830 0.5666 0.0000
vt 0.5869 0.5677 0.0000
vt 0.5830 0.5677 0.0000
# 17 texture coords

o pira
g pira
usemtl Material__141
s 4
f 79/114/79 80/115/80 81/116/81 
s 2
f 82/117/82 79/118/79 81/119/81 
s 16
f 83/120/83 82/121/82 81/122/81 
s 32
f 80/123/80 83/124/83 81/125/81 
s 8
f 79/126/79 84/127/84 80/128/80 
f 82/129/82 84/127/84 79/126/79 
f 83/130/83 84/127/84 82/129/82 
f 80/128/80 84/127/84 83/130/83 
# 0 polygons - 8 triangles

#
# object pira
#

v  -8.7812 -0.9913 0.0058
v  -8.7754 -0.9845 0.0101
v  -7.1759 0.7530 -5.0082
v  -2.9034 -0.9913 -8.0843
v  -2.8975 -0.9845 -8.0800
v  -5.8394 -0.9879 -4.0371
# 6 vertices

vn -0.7379 -0.4595 0.4943
vn -0.1057 0.2820 0.9536
vn -0.5569 0.7254 -0.4046
vn 0.2421 -0.4595 -0.8545
vn 0.8742 0.2820 -0.3952
vn 0.5569 -0.7254 0.4046
# 6 vertex normals

vt 0.5863 0.5668 0.0000
vt 0.5792 0.5668 0.0000
vt 0.5827 0.5701 0.0000
vt 0.4771 0.9538 0.0000
vt 0.4196 0.9538 0.0000
vt 0.4483 0.9738 0.0000
vt 0.5877 0.5659 0.0000
vt 0.5820 0.5659 0.0000
vt 0.5849 0.5684 0.0000
vt 0.5884 0.5668 0.0000
vt 0.5813 0.5668 0.0000
vt 0.5848 0.5696 0.0000
vt 0.5865 0.5689 0.0000
vt 0.5838 0.5671 0.0000
vt 0.5810 0.5689 0.0000
vt 0.5865 0.5652 0.0000
vt 0.5810 0.5652 0.0000
# 17 texture coords

o pira
g pira
usemtl Material__140
s 4
f 85/131/85 86/132/86 87/133/87 
s 2
f 88/134/88 85/135/85 87/136/87 
s 16
f 89/137/89 88/138/88 87/139/87 
s 32
f 86/140/86 89/141/89 87/142/87 
s 8
f 85/143/85 90/144/90 86/145/86 
f 88/146/88 90/144/90 85/143/85 
f 89/147/89 90/144/90 88/146/88 
f 86/145/86 90/144/90 89/147/89 
# 0 polygons - 8 triangles

#
# object pira
#

v  -0.2762 -8.2416 0.0077
v  6.6051 -0.9845 5.0058
v  6.6073 -0.9913 5.0127
v  -2.9033 -0.9913 8.1029
v  -2.9055 -0.9845 8.0960
v  1.8509 -0.9879 6.5543
# 6 vertices

vn -0.2127 -0.7254 -0.6547
vn 0.6400 0.7000 -0.3167
vn 0.8897 -0.0667 0.4517
vn -0.4543 -0.0667 0.8884
vn -0.7040 0.7000 0.1200
vn 0.2127 0.7254 0.6547
# 6 vertex normals

vt 0.5833 0.5701 0.0000
vt 0.5790 0.5646 0.0000
vt 0.5876 0.5646 0.0000
vt 0.5889 0.7161 0.0000
vt 0.4523 0.5068 0.0000
vt 0.7254 0.5068 0.0000
vt 0.5841 0.5685 0.0000
vt 0.5802 0.5650 0.0000
vt 0.5880 0.5650 0.0000
vt 0.5841 0.5690 0.0000
vt 0.5800 0.5653 0.0000
vt 0.5883 0.5653 0.0000
vt 0.5842 0.5682 0.0000
vt 0.5855 0.5674 0.0000
vt 0.5868 0.5682 0.0000
vt 0.5868 0.5666 0.0000
vt 0.5842 0.5666 0.0000
# 17 texture coords

o pira
g pira
usemtl Material__136
s 4
f 91/148/91 92/149/92 93/150/93 
s 2
f 91/151/91 93/152/93 94/153/94 
s 16
f 91/154/91 94/155/94 95/156/95 
s 32
f 91/157/91 95/158/95 92/159/92 
s 8
f 92/160/92 96/161/96 93/162/93 
f 93/162/93 96/161/96 94/163/94 
f 94/163/94 96/161/96 95/164/95 
f 95/164/95 96/161/96 92/160/92 
# 0 polygons - 8 triangles

#
# object pira
#

v  -0.2743 -8.2416 0.0077
v  6.6056 -0.9845 -4.9923
v  6.6128 -0.9913 -4.9923
v  6.6128 -0.9913 5.0077
v  6.6056 -0.9845 5.0077
v  6.6092 -0.9879 0.0077
# 6 vertices

vn -0.6884 -0.7254 -0.0000
vn -0.1034 0.7000 -0.7066
vn 0.7045 -0.0667 -0.7066
vn 0.7045 -0.0667 0.7066
vn -0.1034 0.7000 0.7066
vn 0.6884 0.7254 0.0000
# 6 vertex normals

vt 0.5839 0.5672 0.0000
vt 0.5840 0.5653 0.0000
vt 0.5837 0.5653 0.0000
vt 0.5734 0.7119 0.0000
vt 0.2485 0.6624 0.0000
vt 0.3811 0.5396 0.0000
vt 0.5840 0.5672 0.0000
vt 0.5839 0.5663 0.0000
vt 0.5837 0.5672 0.0000
# 9 texture coords

o pira
g pira
usemtl Material__133
s 4
f 97/165/97 98/166/98 99/167/99 
s 2
f 97/168/97 99/169/99 100/170/100 
s 16
f 97/165/97 100/166/100 101/167/101 
s 32
f 97/165/97 101/166/101 98/167/98 
s 8
f 98/171/98 102/172/102 99/173/99 
f 99/173/99 102/172/102 100/167/100 
f 100/167/100 102/172/102 101/166/101 
f 101/166/101 102/172/102 98/171/98 
# 0 polygons - 8 triangles

#
# object pira
#

v  -0.2734 -8.2416 0.0095
v  6.6102 -0.9913 -4.9954
v  6.6079 -0.9845 -4.9885
v  -2.9026 -0.9845 -8.0787
v  -2.9004 -0.9913 -8.0856
v  1.8538 -0.9879 -6.5371
# 6 vertices

vn -0.2127 -0.7254 0.6547
vn 0.8897 -0.0667 -0.4517
vn 0.6400 0.7000 0.3167
vn -0.7039 0.7000 -0.1200
vn -0.4543 -0.0667 -0.8884
vn 0.2127 0.7254 -0.6547
# 6 vertex normals

vt 0.5839 0.5672 0.0000
vt 0.5840 0.5653 0.0000
vt 0.5837 0.5653 0.0000
vt 0.5350 0.7333 0.0000
vt 0.2956 0.8553 0.0000
vt 0.2255 0.7213 0.0000
vt 0.5840 0.5672 0.0000
vt 0.5839 0.5663 0.0000
vt 0.5837 0.5672 0.0000
# 9 texture coords

o pira
g pira
usemtl Material__139
s 4
f 103/174/103 104/175/104 105/176/105 
s 2
f 103/174/103 105/175/105 106/176/106 
s 16
f 103/174/103 106/175/106 107/176/107 
s 32
f 103/177/103 107/178/107 104/179/104 
s 8
f 104/180/104 108/181/108 105/182/105 
f 105/182/105 108/181/108 106/176/106 
f 106/176/106 108/181/108 107/175/107 
f 107/175/107 108/181/108 104/180/104 
# 0 polygons - 8 triangles

#
# object pira
#

v  -0.2705 -8.2416 0.0089
v  -8.7754 -0.9845 0.0101
v  -8.7812 -0.9913 0.0059
v  -2.9034 -0.9913 -8.0843
v  -2.8975 -0.9845 -8.0801
v  -5.8394 -0.9879 -4.0371
# 6 vertices

vn 0.5569 -0.7254 0.4046
vn -0.3316 0.7000 0.6324
vn -0.9853 -0.0667 0.1575
vn -0.1546 -0.0667 -0.9857
vn 0.4990 0.7000 -0.5108
vn -0.5569 0.7254 -0.4046
# 6 vertex normals

vt 0.5839 0.5672 0.0000
vt 0.5840 0.5653 0.0000
vt 0.5837 0.5653 0.0000
vt 0.5719 0.7698 0.0000
vt 0.5586 0.9711 0.0000
vt 0.3747 0.9301 0.0000
vt 0.5840 0.5672 0.0000
vt 0.5839 0.5663 0.0000
vt 0.5837 0.5672 0.0000
# 9 texture coords

o pira
g pira
usemtl Material__134
s 4
f 109/183/109 110/184/110 111/185/111 
s 2
f 109/186/109 111/187/111 112/188/112 
s 16
f 109/183/109 112/184/112 113/185/113 
s 32
f 109/183/109 113/184/113 110/185/110 
s 8
f 110/189/110 114/190/114 111/191/111 
f 111/191/111 114/190/114 112/185/112 
f 112/185/112 114/190/114 113/184/113 
f 113/184/113 114/190/114 110/189/110 
# 0 polygons - 8 triangles

#
# object pira
#

v  -0.2770 -8.2416 0.0084
v  -8.7877 -0.9913 0.0115
v  -8.7819 -0.9845 0.0072
v  -2.9040 -0.9845 8.0974
v  -2.9099 -0.9913 8.1017
v  -5.8459 -0.9879 4.0545
# 6 vertices

vn 0.5569 -0.7254 -0.4046
vn -0.9853 -0.0667 -0.1575
vn -0.3316 0.7000 -0.6324
vn 0.4990 0.7000 0.5108
vn -0.1546 -0.0667 0.9857
vn -0.5569 0.7254 0.4046
# 6 vertex normals

vt 0.5839 0.5672 0.0000
vt 0.5840 0.5653 0.0000
vt 0.5837 0.5653 0.0000
vt 0.6409 0.7777 0.0000
vt 0.8632 0.8861 0.0000
vt 0.7023 0.9486 0.0000
vt 0.5840 0.5672 0.0000
vt 0.5839 0.5663 0.0000
vt 0.5837 0.5672 0.0000
# 9 texture coords

o pira
g pira
usemtl Material__143
s 4
f 115/192/115 116/193/116 117/194/117 
s 2
f 115/192/115 117/193/117 118/194/118 
s 16
f 115/192/115 118/193/118 119/194/119 
s 32
f 115/195/115 119/196/119 116/197/116 
s 8
f 116/198/116 120/199/120 117/200/117 
f 117/200/117 120/199/120 118/194/118 
f 118/194/118 120/199/120 119/193/119 
f 119/193/119 120/199/120 116/198/116 
# 0 polygons - 8 triangles

