# 3ds Max Wavefront OBJ Exporter v0.99 - (c)2007 guruware
# File Created: 14.10.2024 12:25:11

mtllib letrero.mtl

#
# object Letrero
#

v  0.0418 -0.1932 0.8847
v  0.0418 -0.1932 -0.8817
v  0.0848 -0.1932 -0.8817
v  0.0848 -0.1932 0.8847
v  0.0848 0.1833 -0.8817
v  0.0418 0.1833 -0.8817
v  0.0418 0.1833 0.8847
v  0.0848 0.1833 0.8847
# 8 vertices

vn -0.5774 -0.5774 0.5774
vn -0.5774 -0.5774 -0.5774
vn 0.5774 -0.5774 -0.5774
vn 0.5774 -0.5774 0.5774
vn 0.5774 0.5774 -0.5774
vn -0.5774 0.5774 -0.5774
vn -0.5774 0.5774 0.5774
vn 0.5774 0.5774 0.5774
# 8 vertex normals

vt 1.0000 0.0000 0.0000
vt 1.0000 1.0000 0.0000
vt 0.0000 1.0000 0.0000
vt 0.0000 0.0000 0.0000
# 4 texture coords

o Letrero
g Letrero
usemtl arc_wire_255255255
s 2
f 1/1/1 2/2/2 3/3/3 4/4/4 
s 4
f 5/2/5 6/3/6 7/4/7 8/1/8 
s 8
f 8/2/8 7/3/7 1/4/1 4/1/4 
s 16
f 8/3/8 4/4/4 3/1/3 5/2/5 
s 32
f 3/4/3 2/1/2 6/2/6 5/3/5 
s 64
f 7/2/7 6/3/6 2/4/2 1/1/1 
# 6 polygons

