# 3ds Max Wavefront OBJ Exporter v0.99 - (c)2007 guruware
# File Created: 26.10.2024 02:56:28

mtllib prismo.mtl

#
# object prismo001
#

v  13.8042 8.1018 28.2262
v  12.9555 8.1018 12.3684
v  9.5549 8.1018 12.5505
v  10.4037 8.1018 28.4082
v  13.0129 14.0808 13.4416
v  13.0236 13.9332 13.6408
v  13.2755 13.9332 18.3480
v  13.2862 14.0808 18.5473
v  -10.8747 17.2300 13.6439
v  -10.8747 19.0339 13.6439
v  -10.0260 19.0339 29.5016
v  -10.0260 17.2300 29.5016
v  13.2862 10.2981 18.5473
v  13.0129 10.2981 13.4416
v  13.8042 19.0339 28.2262
v  12.9555 19.0339 12.3684
v  12.9555 17.2300 12.3684
v  13.0129 13.4566 13.4416
v  13.8042 10.0142 28.2262
v  13.2862 10.9598 18.5473
v  13.0129 10.9598 13.4416
v  13.0236 10.4457 13.6408
v  13.0236 11.0558 13.6408
v  13.2755 10.4457 18.3480
v  13.2862 13.4566 18.5473
v  13.2755 13.3577 18.3480
v  9.5549 19.0339 12.5505
v  9.5549 17.2300 12.5505
v  -7.5544 19.0339 13.4662
v  -7.5544 17.2300 13.4662
v  -7.5544 8.1018 13.4662
v  -6.7057 8.1018 29.3239
v  -10.8747 8.1018 13.6439
v  -10.0260 8.1018 29.5016
v  -7.5544 10.0142 13.4662
v  -10.8747 10.0142 13.6439
v  9.5549 10.0142 12.5505
v  12.9555 10.0142 12.3684
v  13.2755 11.0558 18.3480
v  13.0236 13.3577 13.6408
v  13.8042 17.2300 28.2262
v  -10.0260 10.0142 29.5016
# 42 vertices

vn 0.0000 1.0000 -0.0000
vn -1.0000 0.0000 -0.0000
vn 1.0000 0.0000 -0.0000
vn -1.0000 -0.0000 -0.0000
vn -1.0000 0.0000 0.0000
vn 0.0000 0.0000 1.0000
# 6 vertex normals

vt 0.9989 0.0032 0.0000
vt 0.8709 0.1837 0.0000
vt 0.7752 0.1881 0.0000
vt 0.7753 0.0040 0.0000
vt 1.0000 0.8392 0.0000
vt 1.0010 0.1608 0.0000
vt 0.0000 1.0000 0.0000
vt 0.0000 0.0000 0.0000
vt 1.0000 1.0000 0.0000
vt 1.0000 0.0000 0.0000
vt 0.8547 0.7267 0.0000
vt 0.8549 0.8339 0.0000
vt 0.7540 0.8336 0.0000
vt 0.7637 0.7266 0.0000
vt 0.2465 0.8320 0.0000
vt 0.2315 0.7257 0.0000
vt 0.2067 0.1924 0.0000
vt 0.2068 0.0157 0.0000
vt 0.1297 0.1862 0.0000
vt 0.0050 0.0050 0.0000
vt 0.1480 0.8317 0.0000
vt 0.1478 0.7256 0.0000
vt 0.2187 0.1930 0.0000
vt 0.2189 0.3007 0.0000
vt 0.1471 0.3011 0.0000
vt 0.1469 0.1887 0.0000
vt 0.7681 0.1901 0.0000
vt 0.7683 0.2986 0.0000
vt 0.8538 0.1845 0.0000
vt 0.8540 0.2981 0.0000
# 30 texture coords

o prismo001
g prismo001
usemtl Material__43
s off
f 1/1/1 2/2/1 3/3/1 4/4/1 
f 5/5/2 6/5/2 7/6/2 8/6/2 
f 9/7/3 10/7/3 11/8/3 12/8/3 
f 13/6/4 14/5/4 2/9/4 1/10/4 
f 8/6/2 15/10/2 16/9/2 5/5/2 
f 5/5/2 16/9/2 17/9/2 18/5/2 
f 13/6/5 1/10/5 19/10/5 20/6/5 
f 21/5/2 14/5/2 22/5/2 23/5/2 
f 13/6/2 24/6/2 22/5/2 14/5/2 
f 25/6/2 8/6/2 7/6/2 26/6/2 
f 17/11/6 16/12/6 27/13/6 28/14/6 
f 28/14/6 27/13/6 29/15/6 30/16/6 
f 4/4/1 3/3/1 31/17/1 32/18/1 
f 32/18/1 31/17/1 33/19/1 34/20/1 
f 30/16/6 29/15/6 10/21/6 9/22/6 
f 31/23/6 35/24/6 36/25/6 33/26/6 
f 3/27/6 37/28/6 35/24/6 31/23/6 
f 2/29/6 38/30/6 37/28/6 3/27/6 
f 20/6/2 39/6/2 24/6/2 13/6/2 
f 21/5/2 23/5/2 40/5/2 18/5/2 
f 25/6/2 20/6/2 19/10/2 41/10/2 
f 14/5/2 21/5/2 38/9/2 2/9/2 
f 33/7/3 36/7/3 42/8/3 34/8/3 
f 8/6/5 25/6/5 41/10/5 15/10/5 
f 18/5/2 40/5/2 6/5/2 5/5/2 
f 35/24/6 30/16/6 9/22/6 36/25/6 
f 37/28/6 28/14/6 30/16/6 35/24/6 
f 38/30/6 17/11/6 28/14/6 37/28/6 
f 25/6/5 26/6/5 39/6/5 20/6/5 
f 18/5/2 17/9/2 38/9/2 21/5/2 
f 36/7/3 9/7/3 12/8/3 42/8/3 
# 31 polygons

#
# object pasillo
#

v  13.2381 10.4208 18.3284
v  14.8172 10.4146 17.3159
v  14.5914 10.4197 12.6141
v  13.0123 10.4259 13.6265
v  14.8303 13.3266 17.3185
v  14.8329 13.9021 17.3189
v  14.6071 13.9071 12.6171
v  14.6045 13.3316 12.6166
v  13.0280 13.9134 13.6295
v  13.2538 13.9083 18.3314
v  14.5942 11.0298 12.6146
v  13.0151 11.0360 13.6271
v  13.2512 13.3328 18.3309
v  13.2409 11.0309 18.3289
v  14.8200 11.0247 17.3165
v  13.0254 13.3379 13.6290
# 16 vertices

vn 0.0000 1.0000 -0.0000
vn -1.0000 0.0000 -0.0000
vn 0.0000 -1.0000 -0.0000
vn 0.0000 0.0000 1.0000
vn 0.0000 0.0000 -1.0000
# 5 vertex normals

vt 1.0010 0.1608 0.0000
vt 1.0000 0.8392 0.0000
# 2 texture coords

o pasillo
g pasillo
usemtl Material__43
s off
f 43/31/7 44/31/7 45/32/7 46/32/7 
f 47/31/8 48/31/8 49/32/8 50/32/8 
f 51/32/9 49/32/9 48/31/9 52/31/9 
f 46/32/10 45/32/10 53/32/10 54/32/10 
f 52/31/11 48/31/11 47/31/11 55/31/11 
f 56/31/11 57/31/11 44/31/11 43/31/11 
f 54/32/10 53/32/10 50/32/10 58/32/10 
f 44/31/8 57/31/8 53/32/8 45/32/8 
f 58/32/10 50/32/10 49/32/10 51/32/10 
f 55/31/11 47/31/11 57/31/11 56/31/11 
f 57/31/8 47/31/8 50/32/8 53/32/8 
# 11 polygons

